<?xml version="1.0" standalone="no"?><!DOCTYPE svg PUBLIC "-//W3C//DTD SVG 1.1//EN" "http://www.w3.org/Graphics/SVG/1.1/DTD/svg11.dtd"><svg t="1581860299088" class="icon" viewBox="0 0 1024 1024" version="1.1" xmlns="http://www.w3.org/2000/svg" p-id="2910" xmlns:xlink="http://www.w3.org/1999/xlink" width="300" height="300"><defs><style type="text/css"></style></defs><path d="M1024 518.71c0 263.57-228.69 477.24-510.78 477.24S2.43 782.28 2.43 518.71C2.43 396 52 284.16 133.38 199.62 237 103.4 362.42 55.75 513.22 55.75s282.39 51.93 379.88 143.92c81.38 84.54 130.9 196.38 130.9 319.04z" fill="#2c2c2c" p-id="2911" data-spm-anchor-id="a313x.7781069.0.i7" class="selected"></path><path d="M540.38 298.39h-46.64q-38.9 19.33-38.87 62.29h7.77q77.71-36.51 77.74-62.29zM555.93 201.74v-15h-7.77l-23.32 23.63h-7.77v15h15.55q-0.01-23.63 23.31-23.63z" fill="#E2E2E2" p-id="2912"></path><path d="M513.22 55.75c-266.2 0-482 169.24-482 378s215.79 378 482 378 482-169.24 482-378-215.81-378-482-378z m199.38 528.9q-43.71 0-89.27-37.79h-22.79q0 58.75-114 92.37-81.67 0-134.85-77.67v-6.3l104.5-94.46 7.6 48.28 30.39-16.79-22.79-37.79v-23.09l22.79-31.49v-8.4l-7.6 8.4h-22.79l-7.6-8.4h-7.6q0 50.38-20.89 54.58L404.91 423q11.4-149 43.68-149v-6.3q-28.49 0-28.49-48.28v-6.3q34.19-37.79 51.28-94.47h30.39l38 23.09L592.94 127l30.39 37.79-38 71.37h7.6l45.58-8.4L651.82 274q-17.09 0-112.06 117.56 24.66 0 45.58 54.58l58.88-14.69v14.69q0 18.89-51.28 39.89v6.3q142.45 52.48 142.45 69.27z" fill="#E2E2E2" p-id="2913"></path><path d="M524.83 513.19h-7.77l-70 79.47h-5.83q-15.58 0-15.55-23.63t21.42-23.63v-8.59h-5.83q-23.32 6.44-62.19 47.25l7.77 23.63 99.15 8.6q85.51-23.66 85.51-79.47h-7.81zM517.06 465.93v6.45h15.55v8.59l23.32-15.04-7.78-23.62h-7.77l-23.32 23.62z" fill="#E2E2E2" p-id="2914"></path></svg>