<?xml version="1.0" standalone="no"?><!DOCTYPE svg PUBLIC "-//W3C//DTD SVG 1.1//EN" "http://www.w3.org/Graphics/SVG/1.1/DTD/svg11.dtd"><svg t="1581847513278" class="icon" viewBox="0 0 1024 1024" version="1.1" xmlns="http://www.w3.org/2000/svg" p-id="4039" xmlns:xlink="http://www.w3.org/1999/xlink" width="300" height="300"><defs><style type="text/css"></style></defs><path d="M655.601405 1024c-21.07349 0-42.867259-1.159863-63.882491-4.76656-24.584855-4.236942-45.255835-11.206711-63.183396-21.338298-21.597811-12.207689-38.609133-28.90124-50.567901-49.609293l-0.529618-0.969201L215.123632 451.266086C195.697253 417.449994 183.426011 378.411871 178.659451 335.248026 174.20007 294.711084 176.795197 251.568424 186.174727 210.491272 206.448493 121.679674 255.787682 48.973752 321.534427 11.016049 360.847951-11.683367 411.315225 1.832477 434.014641 41.156594l1.498819 2.595127L512.318623 273.282751a93.620527 93.620527 0 0 1-25.808272 100.627369L432.664116 427.507435l-0.693799 0.60906a8.563919 8.563919 0 0 0-1.742442 10.68239l72.705922 125.927209c1.938401 3.357776 4.533528 8.018412 7.822454 13.918354 9.999183 17.943449 25.103881 45.054581 40.780566 69.90954s25.331616 36.755471 30.638385 42.438269c11.40267-4.083353 31.554625-12.970338 49.784067-22.116836l6.673184-3.35248 7.46761 0.195958a104.864311 104.864311 0 0 1 87.111525 50.726787l97.979281 130.481921 0.90035 1.557076a123.295008 123.295008 0 0 1 5.825795 11.460928 108.497489 108.497489 0 0 1 9.08824 54.460591 114.588093 114.588093 0 0 1-16.672366 49.50337 119.905455 119.905455 0 0 1-96.427501 56.923314c-5.963496 0.280697-12.276539 0.640837-18.960315 1.016866-18.091742 1.000978-38.360212 2.150248-59.343667 2.150248zM529.796009 918.934434c30.527166 51.997869 117.898204 47.040647 181.733029 43.428654 6.837365-0.386621 13.288109-0.752057 19.54819-1.059235a60.376422 60.376422 0 0 0 48.523577-28.705282c9.384826-15.200029 10.783017-32.878669 3.845025-48.491799-0.667318-1.504114-1.403487-2.997636-2.197914-4.459382L683.501667 749.409093l-0.895054-1.551779a45.658345 45.658345 0 0 0-31.644659-22.005617c-6.313043 3.055894-15.782608 7.53646-25.739422 11.895214-34.546965 15.120586-49.201487 17.938153-62.722628 12.0541-10.226918-4.448789-20.125474-13.018004-32.126612-27.783747-7.981339-9.829705-16.762401-22.243945-26.846323-38.005368-17.419127-27.206463-34.573446-57.998438-44.826845-76.397358-3.040006-5.455063-5.661614-10.163364-7.372279-13.129224L378.621923 468.584586a68.103544 68.103544 0 0 1 13.240443-84.511102l53.888604-53.629091 0.6938-0.614357A33.895535 33.895535 0 0 0 456.07322 292.878607l-0.164182-0.481952-74.782024-223.466907a22.810636 22.810636 0 0 0-29.806886-6.355413c-51.447067 29.700963-90.474597 88.446162-107.072817 161.146788C227.977454 294.997078 236.477819 369.143561 266.994393 421.978226l0.529618 0.9692z m57.53767-223.186209z" fill="#f1ba53" p-id="4040"></path><path d="M591.549436 236.643796a14.892851 14.892851 0 0 1-10.910125-25.029734c25.342209-27.264721 33.503618-64.613364 21.825547-99.970644s-40.473387-60.455864-77.038196-67.261452A14.892851 14.892851 0 1 1 530.855244 15.11529a130.031746 130.031746 0 0 1 71.604318 216.777835 14.829297 14.829297 0 0 1-10.910126 4.750671z" fill="#f1ba53" p-id="4041"></path></svg>